<?xml version="1.0" encoding="UTF-8" standalone="no"?>
<svg
   xmlns:dc="http://purl.org/dc/elements/1.1/"
   xmlns:cc="http://creativecommons.org/ns#"
   xmlns:rdf="http://www.w3.org/1999/02/22-rdf-syntax-ns#"
   xmlns:svg="http://www.w3.org/2000/svg"
   xmlns="http://www.w3.org/2000/svg"
   xmlns:sodipodi="http://sodipodi.sourceforge.net/DTD/sodipodi-0.dtd"
   xmlns:inkscape="http://www.inkscape.org/namespaces/inkscape"
   id="svg8"
   version="1.1"
   viewBox="0 0 210 297"
   height="297mm"
   width="210mm"
   sodipodi:docname="pwt2o2p.svg"
   inkscape:version="0.92.5 (2060ec1f9f, 2020-04-08)"
   inkscape:export-filename="/home/peter/sites/serif/jekyll-serif-theme/images/logo/pwt2o2p.png"
   inkscape:export-xdpi="300"
   inkscape:export-ydpi="300">
  <sodipodi:namedview
     pagecolor="#ffffff"
     bordercolor="#666666"
     borderopacity="1"
     objecttolerance="10"
     gridtolerance="10"
     guidetolerance="10"
     inkscape:pageopacity="0"
     inkscape:pageshadow="2"
     inkscape:window-width="2560"
     inkscape:window-height="1377"
     id="namedview8"
     showgrid="false"
     inkscape:zoom="0.2102413"
     inkscape:cx="-1082.18"
     inkscape:cy="561.25981"
     inkscape:window-x="0"
     inkscape:window-y="0"
     inkscape:window-maximized="1"
     inkscape:current-layer="layer1" />
  <defs
     id="defs2" />
  <metadata
     id="metadata5">
    <rdf:RDF>
      <cc:Work
         rdf:about="">
        <dc:format>image/svg+xml</dc:format>
        <dc:type
           rdf:resource="http://purl.org/dc/dcmitype/StillImage" />
        <dc:title />
      </cc:Work>
    </rdf:RDF>
  </metadata>
  <g
     id="layer1"
     transform="matrix(14.417388,0,0,33.005032,-1098.6144,-3683.411)"
     style="fill-opacity:1;fill:#000050">
    <g
       aria-label="PW Temple Ltd"
       style="font-style:normal;font-weight:normal;font-size:10.58333302px;line-height:1.25;font-family:sans-serif;letter-spacing:0px;word-spacing:0px;fill:#000050;fill-opacity:1;stroke:none;stroke-width:0.26458332"
       id="text817"
       transform="matrix(0.86922202,0,0,0.81798492,22.262409,25.278473)">
      <path
         d="m 35.404264,113.30357 v -0.26871 h 0.992187 v -6.87297 h -0.992187 v -0.26872 h 3.234944 q 0.480591,0 0.96635,0.1447 0.485758,0.14469 0.81132,0.39274 0.981852,0.75447 0.981852,1.88102 0,0.88884 -0.620117,1.4211 -0.620118,0.53227 -1.570964,0.53227 h -1.736328 v 2.76986 h 0.992187 v 0.26871 z m 2.067057,-3.30729 h 1.632975 q 0.268718,0 0.465088,-0.0879 0.201538,-0.0878 0.325562,-0.23771 0.129191,-0.14986 0.206705,-0.37724 0.07752,-0.22737 0.108521,-0.48059 0.03101,-0.25838 0.03101,-0.58394 0,-0.27389 -0.04134,-0.5271 -0.04134,-0.25838 -0.139527,-0.5271 -0.09819,-0.27389 -0.294555,-0.50126 -0.191203,-0.22738 -0.465088,-0.36691 -0.284221,-0.14469 -0.857829,-0.14469 h -0.971517 z"
         style="font-style:normal;font-variant:normal;font-weight:normal;font-stretch:normal;font-size:10.58333302px;font-family:'Theano Didot';-inkscape-font-specification:'Theano Didot, Normal';font-variant-ligatures:normal;font-variant-caps:normal;font-variant-numeric:normal;font-feature-settings:normal;text-align:start;writing-mode:lr-tb;text-anchor:start;fill:#000050;fill-opacity:1;stroke-width:0.26458332"
         id="path834"
         inkscape:connector-curvature="0" />
      <path
         d="m 41.987841,106.16189 v -0.26872 h 3.079915 v 0.26872 h -1.054199 l 1.875854,5.51904 1.545126,-4.48551 -0.346232,-1.03353 h -0.873332 v -0.26872 h 3.079915 v 0.26872 H 48.28203 l 1.79834,5.38468 1.565796,-5.38468 h -1.131714 v -0.26872 h 2.180745 v 0.26872 h -0.74414 l -2.118734,7.28638 h -0.310058 l -1.932699,-5.78259 -1.99471,5.78259 h -0.310059 l -2.480468,-7.28638 z"
         style="font-style:normal;font-variant:normal;font-weight:normal;font-stretch:normal;font-size:10.58333302px;font-family:'Theano Didot';-inkscape-font-specification:'Theano Didot, Normal';font-variant-ligatures:normal;font-variant-caps:normal;font-variant-numeric:normal;font-feature-settings:normal;text-align:start;writing-mode:lr-tb;text-anchor:start;fill:#000050;fill-opacity:1;stroke-width:0.26458332"
         id="path836"
         inkscape:connector-curvature="0" />
      <path
         d="m 56.219529,108.93175 0.124024,-3.03858 h 6.759277 l 0.124023,3.03858 h -0.268717 q -0.113688,-1.26091 -0.568441,-1.9327 -0.563273,-0.83716 -1.46761,-0.83716 h -0.661459 v 6.87297 h 0.992188 v 0.26871 h -3.059245 v -0.26871 h 0.992188 v -6.87297 h -0.661459 q -0.904337,0 -1.46761,0.83716 -0.454753,0.67179 -0.568441,1.9327 z"
         style="font-style:normal;font-variant:normal;font-weight:normal;font-stretch:normal;font-size:10.58333302px;font-family:'Theano Didot';-inkscape-font-specification:'Theano Didot, Normal';font-variant-ligatures:normal;font-variant-caps:normal;font-variant-numeric:normal;font-feature-settings:normal;text-align:start;writing-mode:lr-tb;text-anchor:start;fill:#000050;fill-opacity:1;stroke-width:0.26458332"
         id="path838"
         inkscape:connector-curvature="0" />
      <path
         d="m 63.547249,111.08149 q 0,-0.67696 0.268717,-1.22473 0.268718,-0.55294 0.780314,-0.8785 0.516765,-0.32557 1.188558,-0.32557 0.413412,0 0.759644,0.16537 0.346232,0.16536 0.558105,0.42375 0.211874,0.25838 0.325562,0.56327 0.118856,0.30489 0.118856,0.60461 0,0.22221 -0.07752,0.3204 -0.07751,0.093 -0.304891,0.093 H 64.49809 q 0,2.23243 1.42627,2.23243 0.558105,0 0.904337,-0.36174 0.346232,-0.36173 0.418579,-0.93017 h 0.268718 q -0.02067,0.29455 -0.129191,0.5736 -0.108521,0.27389 -0.315227,0.51677 -0.201538,0.23771 -0.542602,0.38757 -0.335897,0.1447 -0.759644,0.1447 -0.961181,0 -1.591634,-0.64079 -0.630452,-0.64079 -0.630452,-1.66398 z m 0.956014,-0.50643 h 1.808675 q 0.217041,0 0.279053,-0.11886 0.06718,-0.11885 0.06718,-0.3824 0,-0.48059 -0.242879,-0.82683 -0.237712,-0.34623 -0.738973,-0.34623 -0.248047,0 -0.449585,0.10335 -0.196371,0.0982 -0.325562,0.26355 -0.129191,0.1602 -0.217041,0.38758 -0.08785,0.22221 -0.129191,0.44958 -0.04134,0.22221 -0.05168,0.47026 z"
         style="font-style:normal;font-variant:normal;font-weight:normal;font-stretch:normal;font-size:10.58333302px;font-family:'Theano Didot';-inkscape-font-specification:'Theano Didot, Normal';font-variant-ligatures:normal;font-variant-caps:normal;font-variant-numeric:normal;font-feature-settings:normal;text-align:start;writing-mode:lr-tb;text-anchor:start;fill:#000050;fill-opacity:1;stroke-width:0.26458332"
         id="path840"
         inkscape:connector-curvature="0" />
      <path
         d="m 68.466843,113.30357 v -0.24804 h 0.733805 v -4.07211 h -0.733805 v -0.24804 h 1.581298 v 1.03869 l 0.05168,0.0155 q 0.511597,-1.13689 1.488281,-1.13689 0.299723,0 0.532267,0.11369 0.237712,0.10852 0.377238,0.29456 0.139527,0.18603 0.217041,0.37207 0.08268,0.18087 0.124024,0.3824 h 0.06718 q 0.480591,-1.16272 1.488281,-1.16272 0.356568,0 0.63562,0.13436 0.279053,0.13436 0.43925,0.35657 0.160197,0.21704 0.242879,0.46509 0.08268,0.24805 0.08268,0.49609 v 2.95073 h 0.733805 v 0.24804 h -2.315104 v -0.24804 h 0.733805 v -3.06958 q 0,-0.42892 -0.222209,-0.69247 -0.222208,-0.26871 -0.63562,-0.26871 -0.299723,0 -0.54777,0.20153 -0.248047,0.20154 -0.397908,0.51677 -0.103353,0.21187 -0.15503,0.47025 -0.05168,0.25322 -0.06201,0.43925 -0.0052,0.18604 -0.0052,0.52193 v 1.88103 h 0.733805 v 0.24804 h -2.315104 v -0.24804 h 0.733806 v -2.9869 q 0,-1.04386 -0.764812,-1.04386 -0.625284,0 -0.971517,0.69246 -0.170532,0.3359 -0.232544,0.67696 -0.05684,0.3359 -0.05684,0.78031 v 1.88103 h 0.733806 v 0.24804 z"
         style="font-style:normal;font-variant:normal;font-weight:normal;font-stretch:normal;font-size:10.58333302px;font-family:'Theano Didot';-inkscape-font-specification:'Theano Didot, Normal';font-variant-ligatures:normal;font-variant-caps:normal;font-variant-numeric:normal;font-feature-settings:normal;text-align:start;writing-mode:lr-tb;text-anchor:start;fill:#000050;fill-opacity:1;stroke-width:0.26458332"
         id="path842"
         inkscape:connector-curvature="0" />
      <path
         d="m 77.189824,116.21812 h 0.733806 v -7.2347 h -0.733806 v -0.24804 h 1.581299 v 0.83716 l 0.07235,0.0103 q 0.54777,-0.93018 1.483114,-0.93018 0.516764,0 0.935343,0.25839 0.45992,0.28422 0.713135,0.82682 0.258382,0.5426 0.258382,1.28158 0,0.73897 -0.258382,1.28157 -0.253215,0.5426 -0.713135,0.82682 -0.418579,0.25839 -0.935343,0.25839 -0.935344,0 -1.483114,-0.93018 l -0.07235,0.0103 v 3.7517 h 1.064535 v 0.24805 h -2.645834 z m 1.968872,-6.67659 q -0.387573,0.57361 -0.387573,1.47795 0,0.90433 0.387573,1.48311 0.387574,0.57361 0.883667,0.57361 0.434082,0 0.718303,-0.28422 0.289388,-0.28939 0.403076,-0.73381 0.118856,-0.44442 0.118856,-1.03869 0,-0.59428 -0.118856,-1.0387 -0.113688,-0.44442 -0.403076,-0.72864 -0.284221,-0.28939 -0.718303,-0.28939 -0.496093,0 -0.883667,0.57878 z"
         style="font-style:normal;font-variant:normal;font-weight:normal;font-stretch:normal;font-size:10.58333302px;font-family:'Theano Didot';-inkscape-font-specification:'Theano Didot, Normal';font-variant-ligatures:normal;font-variant-caps:normal;font-variant-numeric:normal;font-feature-settings:normal;text-align:start;writing-mode:lr-tb;text-anchor:start;fill:#000050;fill-opacity:1;stroke-width:0.26458332"
         id="path844"
         inkscape:connector-curvature="0" />
      <path
         d="m 83.132614,113.30357 v -0.24804 h 0.733805 v -7.2347 h -0.733805 v -0.24805 h 1.581299 v 7.48275 h 0.733805 v 0.24804 z"
         style="font-style:normal;font-variant:normal;font-weight:normal;font-stretch:normal;font-size:10.58333302px;font-family:'Theano Didot';-inkscape-font-specification:'Theano Didot, Normal';font-variant-ligatures:normal;font-variant-caps:normal;font-variant-numeric:normal;font-feature-settings:normal;text-align:start;writing-mode:lr-tb;text-anchor:start;fill:#000050;fill-opacity:1;stroke-width:0.26458332"
         id="path846"
         inkscape:connector-curvature="0" />
      <path
         d="m 86.30555,111.08149 q 0,-0.67696 0.268717,-1.22473 0.268717,-0.55294 0.780314,-0.8785 0.516764,-0.32557 1.188558,-0.32557 0.413412,0 0.759644,0.16537 0.346232,0.16536 0.558105,0.42375 0.211873,0.25838 0.325562,0.56327 0.118855,0.30489 0.118855,0.60461 0,0.22221 -0.07751,0.3204 -0.07751,0.093 -0.304891,0.093 H 87.2564 q 0,2.23243 1.426269,2.23243 0.558106,0 0.904338,-0.36174 0.346232,-0.36173 0.418579,-0.93017 h 0.268717 q -0.02067,0.29455 -0.129191,0.5736 -0.10852,0.27389 -0.315226,0.51677 -0.201538,0.23771 -0.542602,0.38757 -0.335897,0.1447 -0.759644,0.1447 -0.961181,0 -1.591634,-0.64079 -0.630452,-0.64079 -0.630452,-1.66398 z m 0.956014,-0.50643 h 1.808675 q 0.217041,0 0.279052,-0.11886 0.06718,-0.11885 0.06718,-0.3824 0,-0.48059 -0.242879,-0.82683 -0.237712,-0.34623 -0.738973,-0.34623 -0.248047,0 -0.449585,0.10335 -0.196371,0.0982 -0.325562,0.26355 -0.129191,0.1602 -0.217041,0.38758 -0.08785,0.22221 -0.129191,0.44958 -0.04134,0.22221 -0.05168,0.47026 z"
         style="font-style:normal;font-variant:normal;font-weight:normal;font-stretch:normal;font-size:10.58333302px;font-family:'Theano Didot';-inkscape-font-specification:'Theano Didot, Normal';font-variant-ligatures:normal;font-variant-caps:normal;font-variant-numeric:normal;font-feature-settings:normal;text-align:start;writing-mode:lr-tb;text-anchor:start;fill:#000050;fill-opacity:1;stroke-width:0.26458332"
         id="path848"
         inkscape:connector-curvature="0" />
      <path
         d="m 94.150029,113.30357 v -0.26871 h 0.992188 v -6.87297 h -0.992188 v -0.26872 h 3.059245 v 0.26872 h -0.992187 v 6.87297 h 1.539957 q 0.5271,0 0.909506,-0.1602 0.382405,-0.1602 0.661458,-0.55294 0.294555,-0.41858 0.423747,-0.83716 0.134358,-0.41858 0.19637,-0.97151 h 0.310055 l -0.11368,2.79052 z"
         style="font-style:normal;font-variant:normal;font-weight:normal;font-stretch:normal;font-size:10.58333302px;font-family:'Theano Didot';-inkscape-font-specification:'Theano Didot, Normal';font-variant-ligatures:normal;font-variant-caps:normal;font-variant-numeric:normal;font-feature-settings:normal;text-align:start;writing-mode:lr-tb;text-anchor:start;fill:#000050;fill-opacity:1;stroke-width:0.26458332"
         id="path850"
         inkscape:connector-curvature="0" />
      <path
         d="m 100.91964,108.98342 v -0.24804 h 0.89917 v -1.01286 q 0.31523,0 0.43925,-0.0413 0.12403,-0.0465 0.16537,-0.17053 0.0517,-0.1447 0.10852,-0.18087 0.0568,-0.0413 0.24288,-0.0413 -0.11886,0.74931 -0.11886,1.44694 h 1.17823 v 0.24804 h -1.17823 v 3.3383 q 0,0.35657 0.1447,0.4961 0.14469,0.13435 0.44441,0.13435 0.3204,0 0.4961,-0.32039 0.18087,-0.32039 0.2067,-0.73381 h 0.24805 q -0.0207,0.28939 -0.10335,0.54777 -0.0827,0.25322 -0.22738,0.47026 -0.14469,0.21704 -0.3824,0.34623 -0.23772,0.12403 -0.54261,0.12403 -0.22221,0 -0.41858,-0.0568 -0.1912,-0.0568 -0.35656,-0.18087 -0.1602,-0.12402 -0.25322,-0.34106 -0.093,-0.22221 -0.093,-0.51676 v -3.3073 z"
         style="font-style:normal;font-variant:normal;font-weight:normal;font-stretch:normal;font-size:10.58333302px;font-family:'Theano Didot';-inkscape-font-specification:'Theano Didot, Normal';font-variant-ligatures:normal;font-variant-caps:normal;font-variant-numeric:normal;font-feature-settings:normal;text-align:start;writing-mode:lr-tb;text-anchor:start;fill:#000050;fill-opacity:1;stroke-width:0.26458332"
         id="path852"
         inkscape:connector-curvature="0" />
      <path
         d="m 105.36898,112.30105 q -0.25321,-0.5426 -0.25321,-1.28157 0,-0.73898 0.25321,-1.28158 0.25839,-0.5426 0.71831,-0.82682 0.41857,-0.25839 0.93534,-0.25839 0.93534,0 1.48311,0.93018 l 0.0724,-0.0103 v -3.75171 h -1.06454 v -0.24805 h 1.91203 v 7.48275 h 0.73381 v 0.24804 h -1.5813 v -0.83715 l -0.0724,-0.0103 q -0.54777,0.93018 -1.48311,0.93018 -0.51677,0 -0.93534,-0.25839 -0.45992,-0.28422 -0.71831,-0.82682 z m 0.81132,-2.32027 q -0.11369,0.44442 -0.11369,1.0387 0,0.59427 0.11369,1.03869 0.11886,0.44442 0.40308,0.73381 0.28939,0.28422 0.72347,0.28422 0.49609,0 0.88367,-0.57361 0.38757,-0.57878 0.38757,-1.48311 0,-0.90434 -0.38757,-1.47795 -0.38758,-0.57878 -0.88367,-0.57878 -0.43408,0 -0.72347,0.28939 -0.28422,0.28422 -0.40308,0.72864 z"
         style="font-style:normal;font-variant:normal;font-weight:normal;font-stretch:normal;font-size:10.58333302px;font-family:'Theano Didot';-inkscape-font-specification:'Theano Didot, Normal';font-variant-ligatures:normal;font-variant-caps:normal;font-variant-numeric:normal;font-feature-settings:normal;text-align:start;writing-mode:lr-tb;text-anchor:start;fill:#000050;fill-opacity:1;stroke-width:0.26458332"
         id="path854"
         inkscape:connector-curvature="0" />
    </g>
  </g>
</svg>
