<?xml version="1.0" encoding="UTF-8" standalone="no"?>
<!-- Generator: Adobe Illustrator 19.0.0, SVG Export Plug-In . SVG Version: 6.00 Build 0)  -->

<svg
   xmlns:dc="http://purl.org/dc/elements/1.1/"
   xmlns:cc="http://creativecommons.org/ns#"
   xmlns:rdf="http://www.w3.org/1999/02/22-rdf-syntax-ns#"
   xmlns:svg="http://www.w3.org/2000/svg"
   xmlns="http://www.w3.org/2000/svg"
   xmlns:sodipodi="http://sodipodi.sourceforge.net/DTD/sodipodi-0.dtd"
   xmlns:inkscape="http://www.inkscape.org/namespaces/inkscape"
   version="1.1"
   id="Layer_1"
   x="0px"
   y="0px"
   viewBox="0 0 490 490"
   style="enable-background:new 0 0 490 490;"
   xml:space="preserve"
   sodipodi:docname="facebook-svgrepo-com-4.svg"
   inkscape:version="0.92.5 (2060ec1f9f, 2020-04-08)"><metadata
   id="metadata46"><rdf:RDF><cc:Work
       rdf:about=""><dc:format>image/svg+xml</dc:format><dc:type
         rdf:resource="http://purl.org/dc/dcmitype/StillImage" /><dc:title></dc:title></cc:Work></rdf:RDF></metadata><defs
   id="defs44" /><sodipodi:namedview
   pagecolor="#ffffff"
   bordercolor="#666666"
   borderopacity="1"
   objecttolerance="10"
   gridtolerance="10"
   guidetolerance="10"
   inkscape:pageopacity="0"
   inkscape:pageshadow="2"
   inkscape:window-width="2560"
   inkscape:window-height="1377"
   id="namedview42"
   showgrid="false"
   inkscape:zoom="0.48163265"
   inkscape:cx="245"
   inkscape:cy="245"
   inkscape:window-x="0"
   inkscape:window-y="0"
   inkscape:window-maximized="1"
   inkscape:current-layer="Layer_1" />
<g
   id="XMLID_21_">
	<g
   id="g8">
		<g
   id="g6">
			<path
   d="M460,0H30C13.458,0,0,13.458,0,30v430c0,16.542,13.458,30,30,30h430c16.542,0,30-13.458,30-30V30     C490,13.458,476.542,0,460,0z M470,460c0,5.514-4.486,10-10,10H30c-5.514,0-10-4.486-10-10V30c0-5.514,4.486-10,10-10h430     c5.514,0,10,4.486,10,10V460z"
   id="path2" />
			<path
   d="M345,180h-50v-49.965c0.076-0.015,0.151-0.027,0.219-0.035H335c5.523,0,10-4.477,10-10V50c0-5.522-4.477-10-10-10h-60     c-41.268,0-60.95,22.039-70.194,40.528C195.111,99.916,195,119.189,195,120v60h-50c-5.523,0-10,4.477-10,10v80     c0,5.523,4.477,10,10,10h40v155c0,5.523,4.477,10,10,10h90c5.523,0,10-4.477,10-10V270h40c4.977,0,9.196-3.659,9.899-8.586l10-70     c0.41-2.87-0.445-5.776-2.345-7.966C350.655,181.258,347.899,180,345,180z M326.327,250H285c-5.523,0-10,4.477-10,10v165h-70V270     c0-5.522-4.477-10-10-10h-40v-60h50c5.523,0,10-4.477,10-10v-69.969c0.001-0.158,0.189-15.92,7.977-31.119     C232.81,69.728,250.313,60,275,60h50v50h-30c-9.695,0-20,7.009-20,20v60c0,5.523,4.477,10,10,10h48.47L326.327,250z"
   id="path4" />
		</g>
	</g>
</g>
<g
   id="g11">
</g>
<g
   id="g13">
</g>
<g
   id="g15">
</g>
<g
   id="g17">
</g>
<g
   id="g19">
</g>
<g
   id="g21">
</g>
<g
   id="g23">
</g>
<g
   id="g25">
</g>
<g
   id="g27">
</g>
<g
   id="g29">
</g>
<g
   id="g31">
</g>
<g
   id="g33">
</g>
<g
   id="g35">
</g>
<g
   id="g37">
</g>
<g
   id="g39">
</g>
<path
   style="opacity:0.77999998;fill:#c0af00;fill-opacity:1;stroke:#eeffff;stroke-width:12.69696999;stroke-linejoin:bevel;stroke-miterlimit:4;stroke-dasharray:none;stroke-opacity:0.02912622"
   d="m 205.55085,344.03814 c 0,-59.08146 -0.64041,-80.1616 -2.49153,-82.01272 -1.63025,-1.63025 -10.24294,-2.49152 -24.91525,-2.49152 h -22.42373 v -29.0678 -29.06779 h 25.49141 c 36.8896,0 34.28215,3.8192 35.09451,-51.40388 0.62187,-42.27354 0.97677,-45.83444 5.58391,-56.025807 5.46372,-12.086224 17.52823,-24.163625 29.04887,-29.07991 5.32288,-2.271471 17.22353,-3.520294 40.25799,-4.224567 l 32.70128,-0.999833 v 25.189031 25.189026 h -18.84616 c -18.0616,0 -19.09881,0.25266 -24.91525,6.0691 l -6.0691,6.0691 v 36.37673 c 0,45.12943 -1.81154,42.84101 33.91339,42.84101 h 24.68434 l -1.17218,6.74788 c -0.6447,3.71133 -2.25765,14.45603 -3.58434,23.87712 l -2.41215,17.12923 h -22.45182 c -17.64238,0 -23.15073,0.69891 -25.71453,3.26272 -2.8585,2.85849 -3.26271,13.66205 -3.26271,87.20339 v 83.94067 h -34.25848 -34.25847 z"
   id="path853"
   inkscape:connector-curvature="0" /><path
   style="opacity:0.77999998;fill:#c0af00;fill-opacity:1;stroke:#eeffff;stroke-width:12.69696999;stroke-linejoin:bevel;stroke-miterlimit:4;stroke-dasharray:none;stroke-opacity:0.02912622"
   d="m 205.55085,344.03814 c 0,-59.08146 -0.64041,-80.1616 -2.49153,-82.01272 -1.63025,-1.63025 -10.24294,-2.49152 -24.91525,-2.49152 H 155.72034 V 230.4661 201.39831 H 182.664 c 26.02279,0 27.0534,-0.16748 30.15437,-4.90016 2.50763,-3.82713 3.5587,-14.8761 4.79987,-50.45676 1.54883,-44.4006 1.73163,-45.79971 7.20388,-55.137389 8.25833,-14.091779 20.685,-23.876876 33.42093,-26.316555 5.84874,-1.120377 23.01384,-2.647908 38.14466,-3.394513 l 27.5106,-1.357463 v 25.103451 25.103449 h -19.33613 c -18.47509,0 -19.58456,0.25931 -24.91525,5.82336 l -5.57913,5.82336 v 35.24008 c 0,46.69348 -1.61305,44.46914 32.24803,44.46914 h 25.78375 l -1.12653,5.70974 c -0.61959,3.14036 -2.24679,13.65148 -3.616,23.35805 l -2.48947,17.64831 -22.80455,0.56522 c -18.42737,0.45673 -23.30271,1.23032 -25.39989,4.03031 -1.97604,2.63825 -2.59534,23.43575 -2.59534,87.15724 v 83.69214 h -34.25848 -34.25847 z"
   id="path855"
   inkscape:connector-curvature="0" /><path
   style="opacity:0.77999998;fill:#ffffff;fill-opacity:1;stroke:#eeffff;stroke-width:12.69696999;stroke-linejoin:bevel;stroke-miterlimit:4;stroke-dasharray:none;stroke-opacity:0.02912622"
   d="M 24.025424,465.97457 C 21.10081,463.04996 20.762712,440.15151 20.762712,245 20.762712,49.848485 21.10081,26.950038 24.025424,24.025424 26.950038,21.10081 49.848485,20.762712 245,20.762712 c 195.15151,0 218.04996,0.338098 220.97457,3.262712 2.92462,2.924614 3.26272,25.823061 3.26272,220.974576 0,195.15151 -0.3381,218.04996 -3.26272,220.97457 -2.92461,2.92462 -25.82306,3.26272 -220.97457,3.26272 -195.151515,0 -218.049962,-0.3381 -220.974576,-3.26272 z M 291.83833,443.4527 c 3.85761,-2.81939 4.05546,-6.55595 4.61692,-87.20339 l 0.58661,-84.25778 h 17.27094 c 9.49901,0 20.18636,-1.01634 23.74968,-2.25851 7.29766,-2.54397 6.52101,0.11565 12.86379,-44.05241 5.23694,-36.46759 5.24973,-42.21595 0.10008,-44.97197 -2.20885,-1.18212 -15.28935,-2.14932 -29.06782,-2.14932 H 296.90678 V 154.6822 130.80508 h 21.68312 c 29.1875,0 28.14739,1.6879 28.14739,-45.677961 0,-29.628739 -0.60478,-37.312367 -3.23213,-41.063441 -3.15054,-4.498009 -4.24596,-4.614525 -43.383,-4.614525 -49.99767,0 -61.05924,2.651508 -78.83436,18.89697 -21.61511,19.754996 -28.0762,41.029832 -28.15345,92.702607 l -0.0411,27.51059 H 168.0415 c -13.77846,0 -26.85897,0.9672 -29.0678,2.14932 -3.78594,2.02618 -4.01604,4.79803 -4.01604,48.37712 0,33.18659 0.70288,46.93068 2.49152,48.71932 1.63026,1.63027 10.24294,2.49153 24.91526,2.49153 h 22.42373 v 79.78813 c 0,69.76631 0.40981,80.19795 3.26271,83.05085 4.61169,4.61169 97.52302,4.89558 103.78748,0.31711 z"
   id="path857"
   inkscape:connector-curvature="0" /></svg>